25-11-10 19:45:49,638 - __main__ - ERROR - FFmpeg subtitle burning failed: ffmpeg version 2025-03-24-git-cbbc927a67-full_build-www.gyan.dev Copyright (c) 2000-2025 the FFmpeg developers
  built with gcc 14.2.0 (Rev1, Built by MSYS2 project)
  configuration: --enable-gpl --enable-version3 --enable-static --disable-w32threads --disable-autodetect --enable-fontconfig --enable-iconv --enable-gnutls --enable-lcms2 --enable-libxml2 --enable-gmp --enable-bzlib --enable-lzma --enable-libsnappy --enable-zlib --enable-librist --enable-libsrt --enable-libssh --enable-libzmq --enable-avisynth --enable-libbluray --enable-libcaca --enable-libdvdnav --enable-libdvdread --enable-sdl2 --enable-libaribb24 --enable-libaribcaption --enable-libdav1d --enable-libdavs2 --enable-libopenjpeg --enable-libquirc --enable-libuavs3d --enable-libxevd --enable-libzvbi --enable-libqrencode --enable-librav1e --enable-libsvtav1 --enable-libvvenc --enable-libwebp --enable-libx264 --enable-libx265 --enable-libxavs2 --enable-libxeve --enable-libxvid --enable-libaom --enable-libjxl --enable-libvpx --enable-mediafoundation --enable-libass --enable-frei0r --enable-libfreetype --enable-libfribidi --enable-libharfbuzz --enable-liblensfun --enable-libvidstab --enable-libvmaf --enable-libzimg --enable-amf --enable-cuda-llvm --enable-cuvid --enable-dxva2 --enable-d3d11va --enable-d3d12va --enable-ffnvcodec --enable-libvpl --enable-nvdec --enable-nvenc --enable-vaapi --enable-libshaderc --enable-vulkan --enable-libplacebo --enable-opencl --enable-libcdio --enable-libgme --enable-libmodplug --enable-libopenmpt --enable-libopencore-amrwb --enable-libmp3lame --enable-libshine --enable-libtheora --enable-libtwolame --enable-libvo-amrwbenc --enable-libcodec2 --enable-libilbc --enable-libgsm --enable-liblc3 --enable-libopencore-amrnb --enable-libopus --enable-libspeex --enable-libvorbis --enable-ladspa --enable-libbs2b --enable-libflite --enable-libmysofa --enable-librubberband --enable-libsoxr --enable-chromaprint
  libavutil      59. 60.100 / 59. 60.100
  libavcodec     61. 33.102 / 61. 33.102
  libavformat    61.  9.107 / 61.  9.107
  libavdevice    61.  4.100 / 61.  4.100
  libavfilter    10.  9.100 / 10.  9.100
  libswscale      8. 13.103 /  8. 13.103
  libswresample   5.  4.100 /  5.  4.100
  libpostproc    58.  4.100 / 58.  4.100
Input #0, mov,mp4,m4a,3gp,3g2,mj2, from '/tmp/downloads\10ff8666e5e306cd.3gp':
  Metadata:
    major_brand     : 3gp4
    minor_version   : 512
    compatible_brands: 3gp4isomiso2
  Duration: 00:23:40.13, start: 0.000000, bitrate: 194 kb/s
  Stream #0:0[0x1](und): Video: mpeg4 (Simple Profile) (mp4v / 0x7634706D), yuv420p, 176x144 [SAR 1:1 DAR 11:9], 168 kb/s, 15 fps, 15 tbr, 15360 tbn (default)
    Metadata:
      handler_name    : VideoHandler
      vendor_id       : [0][0][0][0]
  Stream #0:1[0x2](und): Audio: aac (LC) (mp4a / 0x6134706D), 16000 Hz, mono, fltp, 24 kb/s (default)
    Metadata:
      handler_name    : SoundHandler
      vendor_id       : [0][0][0][0]
[Parsed_subtitles_3 @ 000001584d61f800] libass API version: 0x1703020
[Parsed_subtitles_3 @ 000001584d61f800] libass source: commit: 0.17.3-79-g1b699559025185e34d21a24cac477ca360cb917d
[Parsed_subtitles_3 @ 000001584d61f800] Shaper: FriBidi 1.0.16 (SIMPLE) HarfBuzz-ng 10.4.0 (COMPLEX)
[Parsed_subtitles_3 @ 000001584d61f800] Unable to open /tmp/downloads10ff8666e5e306cd_subs.ass
[AVFilterGraph @ 000001584d622a80] Error initializing filters
Error opening output file /tmp/downloads\10ff8666e5e306cd_with_subs.3gp.
Error opening output files: No such file or directory

2025-11-10 19:45:49,650 - __main__ - ERROR - Full FFmpeg command: ffmpeg -i /tmp/downloads\10ff8666e5e306cd.3gp -vf scale=176:132,pad=176:144:0:0,setsar=1,subtitles=/tmp/downloads\\10ff8666e5e306cd_subs.ass -vcodec mpeg4 -r 12 -b:v 200k -maxrate 250k -bufsize 400k -qmin 2 -qmax 31 -mbd rd -flags +cgop -sc_threshold 1000000000 -g 120 -trellis 2 -cmp 2 -subcmp 2 -me_method hex -acodec aac -ar 44100 -b:a 128k -ac 1 -y /tmp/downloads\10ff8666e5e306cd_with_subs.3gp
2025-11-10 19:45:49,661 - __main__ - WARNING - Subtitle burning failed, using 3GP without subtitles
2025-11-10 19:45:49,697 - werkzeug - INFO - 127.0.0.1 - - [10/Nov/2025 19:45:49] "GET /favicon.ico HTTP/1.1" 204 -
2025-11-10 19:46:19,826 - __main__ - INFO - ✓ FFprobe found at: ffprobe
2025-11-10 19:46:20,042 - werkzeug - INFO - 127.0.0.1 - - [10/Nov/2025 19:46:20] "GET /status/10ff8666e5e306cd HTTP/1.1" 200 -
2025-11-10 19:46:20,440 - werkzeug - INFO - 127.0.0.1 - - [10/Nov/2025 19:46:20] "GET /favicon.ico HTTP/1.1" 204 -
2025-11-10 19:46:33,778 - werkzeug - INFO - 127.0.0.1 - - [10/Nov/2025 19:46:33] "GET /download/10ff8666e5e306cd HTTP/1.1" 200 -